<?xml version="1.0" encoding="UTF-8"?>
<svg width="774px" height="214px" viewBox="0 0 774 214" version="1.1" xmlns="http://www.w3.org/2000/svg" xmlns:xlink="http://www.w3.org/1999/xlink">
    <!-- Generator: Sketch 48.1 (47250) - http://www.bohemiancoding.com/sketch -->
    <title>Logo</title>
    <desc>Created with Sketch.</desc>
    <defs></defs>
    <g id="Page-1" stroke="none" stroke-width="1" fill="none" fill-rule="evenodd">
        <g id="Logo">
            <g id="Daetwyler_Industries" transform="translate(35.000000, 43.000000)">
                <path d="M43.11,98.42 L24.11,66.22 C23.5991827,65.6114704 23.4970047,64.7582822 23.8496821,64.0463403 C24.2023595,63.3343984 24.9430065,62.8987237 25.7366216,62.9363759 C26.5302367,62.9740281 27.2263096,63.4778664 27.51,64.22 L46.51,96.42 C47.0331354,97.0260067 47.1444911,97.8855842 46.793046,98.6048902 C46.4416009,99.3241962 45.6950772,99.7646232 44.895518,99.7243758 C44.0959588,99.6841283 43.3974361,99.170962 43.12,98.42" id="Shape" fill="#B2B2B2"></path>
                <path d="M37.76,101.57 L18.76,69.36 C18.2491827,68.7514704 18.1470047,67.8982822 18.4996821,67.1863403 C18.8523595,66.4743984 19.5930065,66.0387237 20.3866216,66.0763759 C21.1802367,66.1140281 21.8763096,66.6178664 22.16,67.36 L41.16,99.56 C41.6831354,100.166007 41.7944911,101.025584 41.443046,101.74489 C41.0916009,102.464196 40.3450772,102.904623 39.545518,102.864376 C38.7459588,102.824128 38.0474361,102.310962 37.77,101.56" id="Shape" fill="#B2B2B2"></path>
                <path d="M32.41,104.72 L13.41,72.52 C12.7155508,71.541592 12.9286041,70.187816 13.89,69.47 C14.9867701,68.9709214 16.2811856,69.4424267 16.8,70.53 L35.8,102.73 C36.3231354,103.336007 36.4344911,104.195584 36.083046,104.91489 C35.7316009,105.634196 34.9850772,106.074623 34.185518,106.034376 C33.3859588,105.994128 32.6874361,105.480962 32.41,104.73" id="Shape" fill="#B2B2B2"></path>
                <path d="M84.05,98.42 L103.05,66.22 C103.573135,65.6139933 103.684491,64.7544158 103.333046,64.0351098 C102.981601,63.3158038 102.235077,62.8753768 101.435518,62.9156242 C100.635959,62.9558717 99.9374361,63.469038 99.66,64.22 L80.66,96.42 C80.1368646,97.0260067 80.0255089,97.8855842 80.376954,98.6048902 C80.7283991,99.3241962 81.4749228,99.7646232 82.274482,99.7243758 C83.0740412,99.6841283 83.7725639,99.170962 84.05,98.42" id="Shape" fill="#B2B2B2"></path>
                <path d="M89.4,101.57 L108.4,69.36 C108.923135,68.7539933 109.034491,67.8944158 108.683046,67.1751098 C108.331601,66.4558038 107.585077,66.0153768 106.785518,66.0556242 C105.985959,66.0958717 105.287436,66.609038 105.01,67.36 L86.01,99.56 C85.4752703,100.163403 85.355137,101.028876 85.7053048,101.755109 C86.0554726,102.481341 86.8074597,102.926304 87.6125766,102.883672 C88.4176936,102.84104 89.1184849,102.319151 89.39,101.56" id="Shape" fill="#B2B2B2"></path>
                <path d="M94.75,104.72 L113.75,72.52 C114.273135,71.9139933 114.384491,71.0544158 114.033046,70.3351098 C113.681601,69.6158038 112.935077,69.1753768 112.135518,69.2156242 C111.335959,69.2558717 110.637436,69.769038 110.36,70.52 L91.36,102.72 C90.8368646,103.326007 90.7255089,104.185584 91.076954,104.90489 C91.4283991,105.624196 92.1749228,106.064623 92.974482,106.024376 C93.7740412,105.984128 94.4725639,105.470962 94.75,104.72" id="Shape" fill="#B2B2B2"></path>
                <path d="M72.76,56.32 C75.54,59.44 76.07,64.08 75.09,68.02 C73.7992899,72.1814352 70.3543647,75.3163171 66.09,76.21 C64.09,76.56 59.42,76.52 59.16,76.21 C59.0075492,75.8978549 58.9223765,75.5571637 58.91,75.21 L58.91,50.8 C64.53,50.1 69.18,52.36 72.71,56.32 M74.76,52.65 C78.8340491,56.4851057 80.5301704,62.2152454 79.2,67.65 C78.2,71.65 74.73,75.08 71.11,76.65 C65.56,78.98 57.34,77.65 52.11,77.81 C51.72,77.73 51.75,77.04 52.01,76.98 C53.58,76.59 53.51,75.86 53.64,74.69 L53.63,52.3 C53.46,51.4 52.25,51.18 51.85,50.62 C51.7241328,50.3255943 51.7743834,49.9854365 51.98,49.74 C52.5321907,49.5485763 53.1165006,49.4670446 53.7,49.5 C56.7,49.39 69.94,48.36 74.84,52.66" id="Shape" fill="#B2B2B2"></path>
                <path d="M84.69,56.5 C87.94,63.68 86.43,72.87 81.69,78.9 C75.4993757,86.7595409 64.8164377,89.5071178 55.6019938,85.6096527 C46.3875498,81.7121877 40.918595,72.1327892 42.246667,62.2165179 C43.5747391,52.3002466 51.3716561,44.4975274 61.2869367,43.162079 C71.2022173,41.8266307 80.7856815,47.2884579 84.69,56.5 M82.79,36.79 C89.9552527,37.1657784 96.1971742,41.7999322 98.63,48.55 C100.77,54.3 99.11,60.5 98.31,61.83 L80.42,92.76 C76.08,100.28 72.42,103.49 64.83,103.58 C57.24,103.67 52.01,100.28 47.12,92.71 C42.23,85.14 34.78,72.24 29.02,61.77 C26.1559626,54.6950838 27.91785,46.5880209 33.46,41.34 C36.443904,38.6614121 40.2082961,37.0105474 44.2,36.63 L82.79,36.8" id="Shape" fill="#B2B2B2"></path>
                <path d="M83.87,9.8 C109.51,22.8 124.63,49.73 121.34,78.9 C120.708596,84.5075358 119.343595,90.0078856 117.28,95.26 C106.67946,109.193376 91.0420999,118.419275 73.72,120.96 C49.55,124.07 27.84,115.47 11.89,97.79 C9.33,94.74 8.89,90.79 7.64,87.19 C1.43,59.9 10.57,33.49 32.55,16.26 C41.06,10.09 52.73,5.61 63.01,3.64 C72.2,4.64 76.61,6.48 83.88,9.82 M120.09,34.82 C128.36,49.3 129.82,69.82 124.09,85.96 C117.14,108.22 94.2,126.6 70.98,128.51 C47.1781783,131.174089 23.8841811,120.308703 10.63,100.36 C-1.2,83.5 -3.58,57.22 5.7,38.36 C15.25,16.65 37.28,1.99 60.7,1.06 C85.3433112,-0.00734513651 108.425188,13.1168056 120.11,34.84" id="Shape" fill="#B2B2B2"></path>
                <path d="M44.79,30.32 L82.17,30.32 C82.9604821,30.1701402 83.7638043,30.5085437 84.2087877,31.1788493 C84.653771,31.849155 84.653771,32.720845 84.2087877,33.3911507 C83.7638043,34.0614563 82.9604821,34.3998598 82.17,34.25 L44.79,34.25 C43.9995179,34.3998598 43.1961957,34.0614563 42.7512123,33.3911507 C42.306229,32.720845 42.306229,31.849155 42.7512123,31.1788493 C43.1961957,30.5085437 43.9995179,30.1701402 44.79,30.32" id="Shape" fill="#B2B2B2"></path>
                <path d="M44.79,24.11 L82.17,24.11 C82.9558426,23.9723345 83.7483342,24.3148781 84.186491,24.9816007 C84.6246479,25.6483233 84.6246479,26.5116767 84.186491,27.1783993 C83.7483342,27.8451219 82.9558426,28.1876655 82.17,28.05 L44.79,28.05 C44.0041574,28.1876655 43.2116658,27.8451219 42.773509,27.1783993 C42.3353521,26.5116767 42.3353521,25.6483233 42.773509,24.9816007 C43.2116658,24.3148781 44.0041574,23.9723345 44.79,24.11" id="Shape" fill="#B2B2B2"></path>
                <path d="M44.79,17.89 L82.17,17.89 C82.9558426,17.7523345 83.7483342,18.0948781 84.186491,18.7616007 C84.6246479,19.4283233 84.6246479,20.2916767 84.186491,20.9583993 C83.7483342,21.6251219 82.9558426,21.9676655 82.17,21.83 L44.79,21.83 C44.0041574,21.9676655 43.2116658,21.6251219 42.773509,20.9583993 C42.3353521,20.2916767 42.3353521,19.4283233 42.773509,18.7616007 C43.2116658,18.0948781 44.0041574,17.7523345 44.79,17.89" id="Shape" fill="#B2B2B2"></path>
                <path d="M704.14,38.22 C702.245169,37.3762951 700.211357,36.8881801 698.14,36.78 C694.43,36.7 691.05,36.78 688.14,38.5 C685.481112,40.1324058 683.472992,42.6390205 682.46,45.59 L682.46,38.33 L663.07,38.33 L663.07,106.53 L684.46,106.53 L684.46,78.32 C684.46,64.32 688.8,59.08 697.31,58.81 C699.312264,58.7390699 701.3125,58.9992357 703.23,59.58 L704.14,38.22" id="Shape" fill="#EF7D00" fill-rule="nonzero"></path>
                <rect id="Rectangle-path" fill="#EF7D00" fill-rule="nonzero" x="575.25" y="16.2" width="21.38" height="90.34"></rect>
                <polyline id="Shape" fill="#EF7D00" fill-rule="nonzero" points="545.65 127.39 572.64 38.38 552.12 38.38 542.83 73.53 532.61 38.38 510.22 38.38 531.9 106.57 526.64 127.42 545.65 127.39"></polyline>
                <polyline id="Shape" fill="#EF7D00" fill-rule="nonzero" points="431.75 106.61 454.96 106.61 463.25 69.51 463.45 69.51 471.04 106.61 494.05 106.61 510.12 38.38 489.76 38.38 483.61 73.31 483.43 73.31 475.18 38.38 452.11 38.38 443.69 73.31 443.45 73.31 436.88 38.38 415.57 38.38 431.75 106.61"></polyline>
                <path d="M368.41,57.01 L377.83,57.01 L377.83,82.62 C377.83,90.75 379.31,97.03 382.55,101.37 C385.91,105.87 390.33,108.2 399.55,108.2 C404.018892,108.227713 408.477824,107.775115 412.85,106.85 L412.16,88.53 C410.04,89.16 407.84,89.84 405.62,89.53 C402.62,89.05 402.06,88.62 400.44,86.65 C398.82,84.68 399.03,81.19 399.03,77.06 L399.03,57.06 L412.03,57.06 L412.03,38.38 L399.03,38.38 L399.03,16.31 L378.22,23.47 L378.22,38.38 L368.4,38.38 L368.4,57.02" id="Shape" fill="#EF7D00" fill-rule="nonzero"></path>
                <path d="M197.88,37.31 L203.44,37.31 C216.19,37.31 222.39,45.22 222.44,60.84 C222.49,76.46 216.28,84.4 203.44,84.4 L197.88,84.4 L197.88,37.31 M175.33,106.54 L201.91,106.54 C214.616667,106.633333 224.976667,103.176667 232.99,96.17 C241.003333,89.1633333 245.06,77.2466667 245.16,60.42 C245.02,43.0866667 241.02,31.0866667 233.16,24.42 C225.313333,18.0666667 214.896667,14.9733333 201.91,15.14 L175.33,15.14 L175.33,106.52" id="Shape" fill="#EF7D00" fill-rule="nonzero"></path>
                <path d="M268.82,84.66 C268.82,82.66 269.47,80.54 271.12,79.56 C272.943694,78.521659 275.023398,78.0190638 277.12,78.11 C279.26,78.11 280.12,78.27 281.89,78.39 C282.056238,81.2160799 281.309498,84.0207349 279.76,86.39 C278.521892,88.1473645 276.555157,89.2502069 274.41,89.39 C272.942838,89.6234244 271.444457,89.2397812 270.27,88.33 C269.259594,87.4099685 268.7162,86.0845261 268.79,84.72 M304.66,106.61 C303.88587,101.259462 303.541436,95.8555245 303.63,90.45 L303.63,65.06 C303.476667,54.6466667 300.886667,47.3133333 295.86,43.06 C290.74,38.76 284.51,36.69 277.23,36.73 C269.426632,36.6472181 261.703957,38.3147691 254.63,41.61 L254.7,61.29 C260.209597,57.858719 266.589985,56.0848461 273.08,56.18 C278.08,56.18 282.37,57.69 282.46,63.08 C280.46,62.32 278.46,62.17 275.08,62.17 C268.43,62.17 264.56,63.46 258.68,66.63 C255.616389,68.3991273 253.052779,70.9180036 251.23,73.95 C249.17,77.21 248.11,81.44 248.11,86.68 C248.223333,94.0133333 250.32,99.4266667 254.4,102.92 C258.414922,106.45144 263.593255,108.374618 268.94,108.32 C275.63,108.32 278.08,107.09 282.43,103.08 L284.16,103.08 L284.16,106.57 L304.69,106.57" id="Shape" fill="#EF7D00" fill-rule="nonzero"></path>
                <path d="M330.8,64.33 C330.733258,62.0825211 331.392501,59.8733563 332.68,58.03 C333.998652,56.1249537 336.168096,54.9881557 338.485,54.9881557 C340.801904,54.9881557 342.971348,56.1249537 344.29,58.03 C345.55,60.03 345.79,61.25 345.79,64.33 L330.79,64.33 M366.28,80.66 L366.28,75.14 C366.427906,65.7776209 364.136093,56.537993 359.63,48.33 C355.43,40.91 348.26,37.12 338.23,36.9 C329.663333,37.0266667 322.73,40.14 317.43,46.24 C311.956667,52.42 309.166667,61.2 309.06,72.58 C309.166667,83.9133333 312.243333,92.63 318.29,98.73 C324.14,105.04 331.62,108.26 340.73,108.31 C347.961889,108.203786 355.087615,106.553618 361.63,103.47 L361.63,83.27 C356.17,86.85 352.3,89.07 347.04,89.33 C339.3,89.38 332.27,88.82 331.66,80.66 L366.28,80.66" id="Shape" fill="#EF7D00" fill-rule="nonzero"></path>
                <path d="M622.8,64.33 C622.733306,62.0810239 623.396351,59.8708731 624.69,58.03 C626.011498,56.1291405 628.179914,54.9957001 630.495,54.9957001 C632.810086,54.9957001 634.978502,56.1291405 636.3,58.03 C637.56,60.03 637.8,61.26 637.8,64.33 L622.8,64.33 M658.3,80.66 L658.3,75.14 C658.445017,65.7754644 656.14608,56.5349117 651.63,48.33 C647.43,40.9 640.26,37.12 630.21,36.9 C621.663333,37.0266667 614.733333,40.14 609.42,46.24 C603.953333,52.42 601.163333,61.2 601.05,72.58 C601.163333,83.9133333 604.24,92.63 610.28,98.73 C616.13,105.04 623.61,108.26 632.72,108.31 C639.95557,108.207673 647.085368,106.557351 653.63,103.47 L653.63,83.27 C648.17,86.85 644.3,89.27 639.04,89.33 C631.29,89.39 624.26,88.82 623.66,80.66 L658.28,80.66" id="Shape" fill="#EF7D00" fill-rule="nonzero"></path>
            </g>
        </g>
    </g>
</svg>